<svg xmlns="http://www.w3.org/2000/svg" viewBox="0 0 256 256">
  <defs>
    <linearGradient id="bg" x1="0" y1="0" x2="1" y2="1">
      <stop offset="0%" stop-color="#dff4ff"/>
      <stop offset="45%" stop-color="#c6d6ff"/>
      <stop offset="100%" stop-color="#eef2ff"/>
    </linearGradient>
    <filter id="shadow" x="-20%" y="-20%" width="140%" height="140%">
      <feDropShadow dx="0" dy="18" stdDeviation="18" flood-color="#1e293b" flood-opacity="0.22"/>
    </filter>
  </defs>
  <rect width="256" height="256" rx="64" fill="url(#bg)"/>
  <g filter="url(#shadow)">
    <rect x="36" y="36" width="184" height="184" rx="52" fill="#ffffff" fill-opacity="0.18" stroke="#ffffff" stroke-opacity="0.58" stroke-width="2"/>
    <path d="M128 78c-24.853 0-45 20.147-45 45v17h-6c-8.837 0-16 7.163-16 16v28c0 8.837 7.163 16 16 16h102c8.837 0 16-7.163 16-16v-28c0-8.837-7.163-16-16-16h-6v-17c0-24.853-20.147-45-45-45Zm-27 62v-17c0-14.912 12.088-27 27-27s27 12.088 27 27v17h-54Zm27 18c9.389 0 17 7.611 17 17c0 6.861-4.066 12.773-9.918 15.473V204h-14.164v-13.527A16.989 16.989 0 0 1 111 175c0-9.389 7.611-17 17-17Z" fill="#0f172a" fill-opacity="0.88"/>
    <path d="M54 58c16-22 46-34 86-34c26 0 50 5 72 15c-12 2-20 8-27 14c-18-8-36-11-59-11c-31 0-52 6-72 16Z" fill="#ffffff" fill-opacity="0.52"/>
  </g>
</svg>
